<svg xmlns="http://www.w3.org/2000/svg" xmlns:xlink="http://www.w3.org/1999/xlink" width="326" zoomAndPan="magnify" viewBox="0 0 244.5 72.749999" height="97" preserveAspectRatio="xMidYMid meet" version="1.0"><defs><g/><clipPath id="1a48d2b519"><path d="M 211.164062 13 L 243 13 L 243 46.378906 L 211.164062 46.378906 Z M 211.164062 13 " clip-rule="nonzero"/></clipPath><clipPath id="9e94dc581c"><path d="M 211.164062 12.742188 L 243.304688 12.742188 L 243.304688 46.378906 L 211.164062 46.378906 Z M 211.164062 12.742188 " clip-rule="nonzero"/></clipPath></defs><g clip-path="url(#1a48d2b519)"><path fill="#ee2732" d="M 226.28125 46.082031 L 226.550781 38.367188 C 226.550781 38.339844 226.542969 38.3125 226.523438 38.289062 L 226.476562 38.238281 C 226.417969 38.175781 226.339844 38.140625 226.253906 38.140625 C 226.238281 38.140625 226.21875 38.144531 226.203125 38.144531 L 218.859375 39.449219 L 219.832031 36.507812 C 219.929688 36.207031 219.820312 35.878906 219.558594 35.695312 L 211.765625 30.214844 L 214.0625 29.167969 C 214.121094 29.144531 214.148438 29.082031 214.128906 29.027344 L 212.453125 23.324219 L 217.625 24.546875 C 217.632812 24.550781 217.644531 24.550781 217.652344 24.550781 C 217.707031 24.550781 217.769531 24.515625 217.777344 24.445312 L 218.082031 21.828125 L 221.78125 25.402344 C 221.828125 25.449219 221.882812 25.472656 221.941406 25.472656 C 222.015625 25.472656 222.085938 25.4375 222.132812 25.382812 C 222.175781 25.332031 222.191406 25.269531 222.179688 25.199219 L 220.894531 17.550781 L 223.828125 18.925781 C 223.910156 18.964844 223.992188 18.984375 224.082031 18.984375 C 224.308594 18.984375 224.511719 18.859375 224.609375 18.65625 L 227.234375 13.410156 L 229.859375 18.65625 C 229.960938 18.859375 230.164062 18.984375 230.390625 18.984375 C 230.476562 18.984375 230.5625 18.964844 230.640625 18.925781 L 233.574219 17.550781 L 232.289062 25.199219 C 232.277344 25.269531 232.292969 25.332031 232.335938 25.382812 C 232.382812 25.4375 232.457031 25.472656 232.527344 25.472656 C 232.585938 25.472656 232.640625 25.449219 232.6875 25.402344 L 236.386719 21.828125 L 236.695312 24.445312 C 236.703125 24.515625 236.765625 24.550781 236.816406 24.550781 C 236.828125 24.550781 236.835938 24.550781 236.847656 24.546875 L 242.015625 23.324219 L 240.339844 29.027344 C 240.324219 29.082031 240.351562 29.144531 240.40625 29.167969 L 242.707031 30.214844 L 234.910156 35.695312 C 234.648438 35.878906 234.539062 36.207031 234.640625 36.507812 L 235.609375 39.449219 L 228.269531 38.144531 C 228.25 38.144531 228.234375 38.140625 228.214844 38.140625 C 228.132812 38.140625 228.050781 38.175781 227.996094 38.238281 L 227.949219 38.289062 C 227.929688 38.3125 227.917969 38.339844 227.917969 38.367188 L 228.1875 46.082031 L 226.28125 46.082031 " fill-opacity="1" fill-rule="nonzero"/></g><g clip-path="url(#9e94dc581c)"><path fill="#ffffff" d="M 227.234375 12.742188 L 226.703125 13.808594 L 224.34375 18.523438 C 224.285156 18.644531 224.171875 18.6875 224.082031 18.6875 C 224.039062 18.6875 223.996094 18.675781 223.957031 18.65625 L 221.535156 17.523438 L 220.507812 17.039062 L 220.695312 18.160156 L 221.855469 25.058594 L 218.722656 22.03125 L 217.855469 21.195312 L 217.71875 22.390625 L 217.503906 24.214844 L 213.023438 23.152344 L 212.023438 22.917969 L 212.3125 23.898438 L 213.800781 28.960938 L 212.113281 29.730469 L 211.167969 30.160156 L 212.015625 30.757812 L 219.386719 35.9375 C 219.542969 36.046875 219.605469 36.238281 219.546875 36.414062 L 218.734375 38.882812 L 218.421875 39.828125 L 219.402344 39.65625 L 226.25 38.4375 L 225.996094 45.761719 L 225.972656 46.378906 L 228.496094 46.378906 L 228.476562 45.761719 L 228.21875 38.4375 L 235.066406 39.65625 L 236.046875 39.828125 L 235.734375 38.882812 L 234.921875 36.414062 C 234.863281 36.238281 234.929688 36.046875 235.082031 35.9375 L 242.453125 30.757812 L 243.300781 30.160156 L 242.359375 29.730469 L 240.667969 28.960938 L 242.15625 23.898438 L 242.445312 22.917969 L 241.449219 23.152344 L 236.96875 24.214844 L 236.753906 22.390625 L 236.613281 21.195312 L 235.75 22.03125 L 232.617188 25.058594 L 233.773438 18.160156 L 233.960938 17.039062 L 232.933594 17.523438 L 230.515625 18.65625 C 230.476562 18.675781 230.433594 18.6875 230.390625 18.6875 C 230.300781 18.6875 230.183594 18.644531 230.125 18.523438 L 227.765625 13.808594 Z M 227.234375 14.074219 L 229.59375 18.789062 C 229.75 19.101562 230.0625 19.28125 230.390625 19.28125 C 230.515625 19.28125 230.644531 19.253906 230.769531 19.195312 L 233.1875 18.058594 L 231.996094 25.148438 C 231.9375 25.503906 232.222656 25.769531 232.527344 25.769531 C 232.65625 25.769531 232.785156 25.722656 232.894531 25.617188 L 236.164062 22.457031 L 236.398438 24.480469 C 236.425781 24.695312 236.609375 24.851562 236.816406 24.851562 C 236.847656 24.851562 236.882812 24.847656 236.914062 24.839844 L 241.585938 23.730469 L 240.054688 28.941406 C 239.996094 29.140625 240.09375 29.351562 240.28125 29.4375 L 242.109375 30.273438 L 234.738281 35.449219 C 234.371094 35.710938 234.21875 36.175781 234.355469 36.601562 L 235.171875 39.070312 L 228.320312 37.851562 C 228.285156 37.847656 228.25 37.84375 228.214844 37.84375 C 228.050781 37.84375 227.890625 37.914062 227.777344 38.035156 L 227.730469 38.089844 C 227.65625 38.167969 227.617188 38.269531 227.621094 38.378906 L 227.882812 45.78125 L 226.589844 45.78125 L 226.847656 38.378906 C 226.851562 38.269531 226.8125 38.167969 226.742188 38.089844 L 226.695312 38.035156 C 226.582031 37.914062 226.421875 37.84375 226.253906 37.84375 C 226.21875 37.84375 226.183594 37.847656 226.148438 37.851562 L 219.300781 39.070312 L 220.113281 36.601562 C 220.253906 36.175781 220.097656 35.710938 219.730469 35.449219 L 212.359375 30.273438 L 214.1875 29.4375 C 214.378906 29.351562 214.472656 29.140625 214.417969 28.941406 L 212.882812 23.730469 L 217.554688 24.839844 C 217.589844 24.847656 217.621094 24.851562 217.652344 24.851562 C 217.863281 24.851562 218.046875 24.695312 218.070312 24.480469 L 218.308594 22.457031 L 221.574219 25.617188 C 221.683594 25.722656 221.816406 25.769531 221.941406 25.769531 C 222.246094 25.769531 222.53125 25.503906 222.472656 25.148438 L 221.28125 18.058594 L 223.703125 19.195312 C 223.824219 19.253906 223.953125 19.28125 224.082031 19.28125 C 224.410156 19.28125 224.722656 19.101562 224.878906 18.789062 L 227.234375 14.074219 " fill-opacity="1" fill-rule="nonzero"/></g><g fill="#000000" fill-opacity="1"><g transform="translate(12.941678, 43.529071)"><g><path d="M 8.078125 -17.5625 C 8.984375 -18.625 9.9375 -19.394531 10.9375 -19.875 C 11.9375 -20.351562 13.015625 -20.59375 14.171875 -20.59375 C 15.285156 -20.59375 16.273438 -20.421875 17.140625 -20.078125 C 18.015625 -19.742188 18.738281 -19.304688 19.3125 -18.765625 C 20.46875 -17.617188 21.046875 -15.519531 21.046875 -12.46875 L 21.046875 0 L 15.734375 0 L 15.734375 -11.34375 C 15.734375 -12.5625 15.65625 -13.53125 15.5 -14.25 C 15.34375 -14.976562 15.03125 -15.535156 14.5625 -15.921875 C 14.09375 -16.316406 13.382812 -16.515625 12.4375 -16.515625 C 10.75 -16.515625 9.597656 -15.96875 8.984375 -14.875 C 8.378906 -13.789062 8.078125 -12.34375 8.078125 -10.53125 L 8.078125 0 L 2.765625 0 L 2.765625 -27.8125 L 8.078125 -27.8125 Z M 8.078125 -17.5625 "/></g></g></g><g fill="#000000" fill-opacity="1"><g transform="translate(36.666384, 43.529071)"><g><path d="M 11.921875 -20.59375 C 14.097656 -20.59375 15.972656 -20.097656 17.546875 -19.109375 C 19.128906 -18.128906 20.320312 -16.832031 21.125 -15.21875 C 21.925781 -13.613281 22.328125 -11.921875 22.328125 -10.140625 C 22.328125 -8.273438 21.90625 -6.53125 21.0625 -4.90625 C 20.226562 -3.289062 19.023438 -1.988281 17.453125 -1 C 15.890625 -0.0195312 14.0625 0.46875 11.96875 0.46875 C 10.175781 0.46875 8.488281 0.0976562 6.90625 -0.640625 C 5.332031 -1.378906 4.046875 -2.554688 3.046875 -4.171875 C 2.046875 -5.796875 1.546875 -7.847656 1.546875 -10.328125 C 1.546875 -12.066406 1.941406 -13.71875 2.734375 -15.28125 C 3.523438 -16.851562 4.703125 -18.128906 6.265625 -19.109375 C 7.835938 -20.097656 9.722656 -20.59375 11.921875 -20.59375 Z M 7.03125 -10.0625 C 7.03125 -8.039062 7.5 -6.503906 8.4375 -5.453125 C 9.382812 -4.410156 10.546875 -3.890625 11.921875 -3.890625 C 13.296875 -3.890625 14.460938 -4.40625 15.421875 -5.4375 C 16.378906 -6.46875 16.859375 -8.019531 16.859375 -10.09375 C 16.859375 -12.007812 16.394531 -13.507812 15.46875 -14.59375 C 14.550781 -15.6875 13.359375 -16.234375 11.890625 -16.234375 C 10.535156 -16.234375 9.382812 -15.703125 8.4375 -14.640625 C 7.5 -13.578125 7.03125 -12.050781 7.03125 -10.0625 Z M 7.03125 -10.0625 "/></g></g></g><g fill="#000000" fill-opacity="1"><g transform="translate(60.391089, 43.529071)"><g><path d="M 13.59375 -20.59375 C 16.207031 -20.59375 18.113281 -19.53125 19.3125 -17.40625 C 21.039062 -19.53125 23.082031 -20.59375 25.4375 -20.59375 C 27.664062 -20.59375 29.320312 -19.984375 30.40625 -18.765625 C 31.5 -17.546875 32.046875 -15.71875 32.046875 -13.28125 L 32.046875 0 L 26.71875 0 L 26.71875 -12.046875 C 26.71875 -13.492188 26.53125 -14.597656 26.15625 -15.359375 C 25.78125 -16.128906 25.023438 -16.515625 23.890625 -16.515625 C 22.796875 -16.515625 21.921875 -16.132812 21.265625 -15.375 C 20.609375 -14.625 20.203125 -13.65625 20.046875 -12.46875 C 19.941406 -11.539062 19.890625 -10.710938 19.890625 -9.984375 L 19.890625 0 L 14.5625 0 L 14.5625 -11.84375 C 14.5625 -13.476562 14.382812 -14.664062 14.03125 -15.40625 C 13.6875 -16.144531 12.945312 -16.515625 11.8125 -16.515625 C 10.976562 -16.515625 10.226562 -16.289062 9.5625 -15.84375 C 8.90625 -15.40625 8.453125 -14.796875 8.203125 -14.015625 C 7.890625 -13.085938 7.734375 -11.78125 7.734375 -10.09375 L 7.734375 0 L 2.40625 0 L 2.40625 -20.125 L 7.34375 -20.125 L 7.421875 -17.40625 C 8.242188 -18.414062 9.113281 -19.195312 10.03125 -19.75 C 10.957031 -20.3125 12.144531 -20.59375 13.59375 -20.59375 Z M 13.59375 -20.59375 "/></g></g></g><g fill="#000000" fill-opacity="1"><g transform="translate(94.910357, 43.529071)"><g><path d="M 10.484375 -20.59375 C 13.691406 -20.59375 16.085938 -19.546875 17.671875 -17.453125 C 19.253906 -15.367188 20.046875 -12.398438 20.046875 -8.546875 L 6.6875 -8.546875 C 6.738281 -7.203125 7.128906 -6.039062 7.859375 -5.0625 C 8.597656 -4.09375 9.671875 -3.609375 11.078125 -3.609375 C 11.953125 -3.609375 12.664062 -3.832031 13.21875 -4.28125 C 13.78125 -4.738281 14.191406 -5.445312 14.453125 -6.40625 L 19.765625 -5.515625 C 19.097656 -3.546875 18.007812 -2.054688 16.5 -1.046875 C 15 -0.0351562 13.164062 0.46875 11 0.46875 C 7.757812 0.46875 5.3125 -0.503906 3.65625 -2.453125 C 2.875 -3.359375 2.273438 -4.492188 1.859375 -5.859375 C 1.453125 -7.234375 1.25 -8.59375 1.25 -9.9375 C 1.25 -11.78125 1.578125 -13.507812 2.234375 -15.125 C 2.890625 -16.75 3.910156 -18.066406 5.296875 -19.078125 C 6.679688 -20.085938 8.410156 -20.59375 10.484375 -20.59375 Z M 6.796875 -11.8125 L 14.765625 -11.8125 C 14.734375 -13.4375 14.320312 -14.625 13.53125 -15.375 C 12.75 -16.132812 11.828125 -16.515625 10.765625 -16.515625 C 9.515625 -16.515625 8.539062 -16.066406 7.84375 -15.171875 C 7.144531 -14.273438 6.796875 -13.15625 6.796875 -11.8125 Z M 6.796875 -11.8125 "/></g></g></g><g fill="#000000" fill-opacity="1"><g transform="translate(116.499454, 43.529071)"><g><path d="M 7.890625 -17.796875 C 9.515625 -19.660156 11.46875 -20.59375 13.75 -20.59375 C 15.300781 -20.59375 16.71875 -20.207031 18 -19.4375 C 19.28125 -18.675781 20.300781 -17.519531 21.0625 -15.96875 C 21.832031 -14.414062 22.21875 -12.507812 22.21875 -10.25 C 22.21875 -7.925781 21.820312 -5.957031 21.03125 -4.34375 C 20.238281 -2.738281 19.203125 -1.535156 17.921875 -0.734375 C 16.640625 0.0664062 15.265625 0.46875 13.796875 0.46875 C 12.785156 0.46875 11.703125 0.195312 10.546875 -0.34375 C 9.390625 -0.894531 8.382812 -1.765625 7.53125 -2.953125 L 7.53125 0 L 2.5625 0 L 2.5625 -27.8125 L 7.890625 -27.8125 Z M 7.84375 -10.484375 C 7.84375 -9.316406 7.925781 -8.363281 8.09375 -7.625 C 8.257812 -6.894531 8.539062 -6.253906 8.9375 -5.703125 C 9.863281 -4.410156 11.050781 -3.765625 12.5 -3.765625 C 13.644531 -3.765625 14.632812 -4.253906 15.46875 -5.234375 C 16.3125 -6.222656 16.734375 -7.816406 16.734375 -10.015625 C 16.734375 -11.984375 16.378906 -13.554688 15.671875 -14.734375 C 14.960938 -15.921875 13.832031 -16.515625 12.28125 -16.515625 C 10.976562 -16.515625 9.910156 -16 9.078125 -14.96875 C 8.253906 -13.945312 7.84375 -12.453125 7.84375 -10.484375 Z M 7.84375 -10.484375 "/></g></g></g><g fill="#000000" fill-opacity="1"><g transform="translate(140.22416, 43.529071)"><g><path d="M 10.640625 -20.59375 C 13.203125 -20.59375 15.101562 -20.257812 16.34375 -19.59375 C 17.59375 -18.9375 18.378906 -18.066406 18.703125 -16.984375 C 19.023438 -15.910156 19.175781 -14.492188 19.15625 -12.734375 L 19.109375 -6.875 C 19.085938 -5.039062 19.148438 -3.707031 19.296875 -2.875 C 19.453125 -2.039062 19.78125 -1.082031 20.28125 0 L 15.03125 0 C 14.90625 -0.28125 14.671875 -1.019531 14.328125 -2.21875 C 13.367188 -1.28125 12.378906 -0.597656 11.359375 -0.171875 C 10.335938 0.253906 9.242188 0.46875 8.078125 0.46875 C 6.085938 0.46875 4.472656 -0.078125 3.234375 -1.171875 C 2.003906 -2.273438 1.390625 -3.710938 1.390625 -5.484375 C 1.390625 -6.953125 1.757812 -8.117188 2.5 -8.984375 C 3.238281 -9.859375 4.140625 -10.488281 5.203125 -10.875 C 6.265625 -11.257812 7.519531 -11.597656 8.96875 -11.890625 C 11.195312 -12.296875 12.84375 -12.707031 13.90625 -13.125 L 13.90625 -13.984375 C 13.90625 -14.859375 13.644531 -15.5 13.125 -15.90625 C 12.613281 -16.3125 11.671875 -16.515625 10.296875 -16.515625 C 9.234375 -16.515625 8.441406 -16.300781 7.921875 -15.875 C 7.398438 -15.445312 7.015625 -14.816406 6.765625 -13.984375 L 1.9375 -14.875 C 2.457031 -16.84375 3.390625 -18.285156 4.734375 -19.203125 C 6.085938 -20.128906 8.054688 -20.59375 10.640625 -20.59375 Z M 10.5625 -8.8125 L 9.671875 -8.625 C 7.703125 -8.207031 6.71875 -7.351562 6.71875 -6.0625 C 6.71875 -5.28125 6.992188 -4.625 7.546875 -4.09375 C 8.109375 -3.5625 8.816406 -3.296875 9.671875 -3.296875 C 10.367188 -3.296875 11.066406 -3.476562 11.765625 -3.84375 C 12.460938 -4.207031 13.007812 -4.6875 13.40625 -5.28125 C 13.738281 -5.820312 13.90625 -6.753906 13.90625 -8.078125 L 13.90625 -9.671875 C 12.894531 -9.359375 11.78125 -9.070312 10.5625 -8.8125 Z M 10.5625 -8.8125 "/></g></g></g><g fill="#000000" fill-opacity="1"><g transform="translate(161.813257, 43.529071)"><g><path d="M 7.890625 -17.796875 C 9.515625 -19.660156 11.46875 -20.59375 13.75 -20.59375 C 15.300781 -20.59375 16.71875 -20.207031 18 -19.4375 C 19.28125 -18.675781 20.300781 -17.519531 21.0625 -15.96875 C 21.832031 -14.414062 22.21875 -12.507812 22.21875 -10.25 C 22.21875 -7.925781 21.820312 -5.957031 21.03125 -4.34375 C 20.238281 -2.738281 19.203125 -1.535156 17.921875 -0.734375 C 16.640625 0.0664062 15.265625 0.46875 13.796875 0.46875 C 12.785156 0.46875 11.703125 0.195312 10.546875 -0.34375 C 9.390625 -0.894531 8.382812 -1.765625 7.53125 -2.953125 L 7.53125 0 L 2.5625 0 L 2.5625 -27.8125 L 7.890625 -27.8125 Z M 7.84375 -10.484375 C 7.84375 -9.316406 7.925781 -8.363281 8.09375 -7.625 C 8.257812 -6.894531 8.539062 -6.253906 8.9375 -5.703125 C 9.863281 -4.410156 11.050781 -3.765625 12.5 -3.765625 C 13.644531 -3.765625 14.632812 -4.253906 15.46875 -5.234375 C 16.3125 -6.222656 16.734375 -7.816406 16.734375 -10.015625 C 16.734375 -11.984375 16.378906 -13.554688 15.671875 -14.734375 C 14.960938 -15.921875 13.832031 -16.515625 12.28125 -16.515625 C 10.976562 -16.515625 9.910156 -16 9.078125 -14.96875 C 8.253906 -13.945312 7.84375 -12.453125 7.84375 -10.484375 Z M 7.84375 -10.484375 "/></g></g></g><g fill="#000000" fill-opacity="1"><g transform="translate(185.537962, 43.529071)"><g><path d="M 10.640625 -20.59375 C 13.203125 -20.59375 15.101562 -20.257812 16.34375 -19.59375 C 17.59375 -18.9375 18.378906 -18.066406 18.703125 -16.984375 C 19.023438 -15.910156 19.175781 -14.492188 19.15625 -12.734375 L 19.109375 -6.875 C 19.085938 -5.039062 19.148438 -3.707031 19.296875 -2.875 C 19.453125 -2.039062 19.78125 -1.082031 20.28125 0 L 15.03125 0 C 14.90625 -0.28125 14.671875 -1.019531 14.328125 -2.21875 C 13.367188 -1.28125 12.378906 -0.597656 11.359375 -0.171875 C 10.335938 0.253906 9.242188 0.46875 8.078125 0.46875 C 6.085938 0.46875 4.472656 -0.078125 3.234375 -1.171875 C 2.003906 -2.273438 1.390625 -3.710938 1.390625 -5.484375 C 1.390625 -6.953125 1.757812 -8.117188 2.5 -8.984375 C 3.238281 -9.859375 4.140625 -10.488281 5.203125 -10.875 C 6.265625 -11.257812 7.519531 -11.597656 8.96875 -11.890625 C 11.195312 -12.296875 12.84375 -12.707031 13.90625 -13.125 L 13.90625 -13.984375 C 13.90625 -14.859375 13.644531 -15.5 13.125 -15.90625 C 12.613281 -16.3125 11.671875 -16.515625 10.296875 -16.515625 C 9.234375 -16.515625 8.441406 -16.300781 7.921875 -15.875 C 7.398438 -15.445312 7.015625 -14.816406 6.765625 -13.984375 L 1.9375 -14.875 C 2.457031 -16.84375 3.390625 -18.285156 4.734375 -19.203125 C 6.085938 -20.128906 8.054688 -20.59375 10.640625 -20.59375 Z M 10.5625 -8.8125 L 9.671875 -8.625 C 7.703125 -8.207031 6.71875 -7.351562 6.71875 -6.0625 C 6.71875 -5.28125 6.992188 -4.625 7.546875 -4.09375 C 8.109375 -3.5625 8.816406 -3.296875 9.671875 -3.296875 C 10.367188 -3.296875 11.066406 -3.476562 11.765625 -3.84375 C 12.460938 -4.207031 13.007812 -4.6875 13.40625 -5.28125 C 13.738281 -5.820312 13.90625 -6.753906 13.90625 -8.078125 L 13.90625 -9.671875 C 12.894531 -9.359375 11.78125 -9.070312 10.5625 -8.8125 Z M 10.5625 -8.8125 "/></g></g></g></svg>