<svg width="1017" height="212" viewBox="0 0 1017 212" fill="none" xmlns="http://www.w3.org/2000/svg">
<path d="M0.316895 2.44116H42.6502V159.004C42.6502 163.712 43.3273 166.879 44.6919 168.504C46.0513 170.129 48.5356 170.941 52.1502 170.941H57.3169L57.0461 210.004H46.4627C38.1294 210.004 31.0252 209.139 25.1502 207.42C19.2752 205.712 14.4836 202.863 10.7752 198.879C7.06689 194.905 4.38981 189.66 2.75439 183.15C1.12939 176.639 0.316895 168.587 0.316895 159.004V2.44116Z" fill="black"/>
<path d="M153.355 87.1077C144.491 86.9306 136.985 88.3316 130.834 91.316C124.678 94.29 120.157 98.6702 117.272 104.462C115.824 108.451 114.876 111.936 114.418 114.92C113.97 117.894 113.657 121.462 113.48 125.629C113.48 130.701 113.699 135.316 114.147 139.483C114.605 143.639 115.647 147.347 117.272 150.608C118.897 153.858 121.241 156.748 124.314 159.274C127.397 161.806 131.47 163.889 136.543 165.524C137.803 165.707 139.34 165.889 141.147 166.066C142.949 166.248 144.944 166.337 147.126 166.337C149.652 166.519 151.86 166.566 153.751 166.483C155.652 166.389 157.334 166.16 158.793 165.795C163.668 164.519 167.548 162.524 170.438 159.816C173.34 157.108 175.553 153.993 177.084 150.462C178.626 146.936 179.574 143.097 179.939 138.941C180.314 134.774 180.501 130.519 180.501 126.17C180.501 121.462 180.22 116.764 179.668 112.066C179.126 107.358 177.949 103.149 176.147 99.441C174.34 95.7327 171.626 92.7535 168.001 90.5035C164.386 88.2431 159.506 87.1077 153.355 87.1077ZM132.73 57.7952C135.272 57.2535 139.886 56.9827 146.584 56.9827C173.345 56.9827 192.965 63.1389 205.439 75.441C217.923 87.7327 224.168 107.087 224.168 133.504C224.168 150.326 221.548 164.16 216.314 175.004C211.605 184.78 204.59 192.696 195.272 198.754C185.965 204.806 175.157 208.738 162.855 210.545C161.23 210.738 158.965 210.879 156.064 210.962C153.173 211.056 150.194 211.108 147.126 211.108C144.761 211.108 142.631 211.108 140.73 211.108C138.84 211.108 137.261 210.92 136.001 210.545C117.72 208.196 103.157 201.691 92.3135 191.024C84.3552 183.243 78.8343 174.118 75.751 163.629C72.6781 153.129 71.5948 140.014 72.501 124.274C72.8604 118.847 73.402 114.056 74.126 109.899C74.8448 105.733 75.7979 101.936 76.9802 98.5035C78.1573 95.0608 79.6937 91.8941 81.5843 89.0035C83.4854 86.1025 85.6989 83.2952 88.2302 80.5868C99.4489 68.4618 114.282 60.8681 132.73 57.7952Z" fill="black"/>
<path d="M242.09 58.3369H285.486L285.757 59.9619C285.95 60.8682 286.137 61.7744 286.32 62.6911C286.497 63.5973 286.679 64.5869 286.861 65.6702C288.304 77.4202 290.017 89.6286 292.007 102.295C293.991 114.962 296.163 128.077 298.528 141.629C299.07 145.254 299.653 148.972 300.278 152.774C300.913 156.566 301.596 160.269 302.32 163.879L302.861 164.962L303.403 163.879C303.58 163.519 303.804 163.024 304.07 162.399C304.346 161.764 304.663 160.899 305.028 159.816C305.205 159.274 305.517 158.243 305.965 156.712C306.424 155.17 306.741 153.941 306.924 153.024C307.283 151.764 307.642 150.498 308.007 149.233C308.382 147.972 308.747 146.618 309.111 145.17C309.471 143.728 309.83 142.285 310.195 140.837C310.554 139.379 310.913 137.748 311.278 135.941C313.08 129.066 315.34 120.337 318.049 109.754C320.767 99.1702 323.663 86.3734 326.736 71.3577L327.82 66.2119L350.07 65.9411C357.486 65.9411 362.997 65.9932 366.611 66.0869C370.236 66.1702 372.137 66.2119 372.32 66.2119C372.497 66.5765 372.721 67.4775 372.986 68.9202C373.262 70.3682 373.762 72.3525 374.486 74.8786C374.846 76.1598 375.346 78.2015 375.986 81.0036C376.622 83.7952 377.486 87.5452 378.57 92.2536C379.471 95.8786 380.283 99.0973 381.007 101.899C381.726 104.691 382.361 107.181 382.903 109.358C384.163 113.873 385.517 118.806 386.965 124.149C388.424 129.483 390.054 135.311 391.861 141.629C393.663 148.144 395.059 153.212 396.049 156.837C397.049 160.452 397.726 162.618 398.09 163.337C398.267 163.879 398.538 164.149 398.903 164.149C399.82 163.608 404.163 133.764 411.945 74.6077C412.663 70.0973 413.158 66.5765 413.424 64.0452C413.7 61.5036 413.929 59.9619 414.111 59.4202L414.653 58.3369H457.257C457.799 58.8786 456.434 68.4723 453.174 87.1077C447.215 123.998 442.424 152.535 438.799 172.712C435.184 192.879 432.924 204.764 432.007 208.379L431.736 210.004H402.986C383.804 210.004 374.122 209.91 373.945 209.733C373.762 209.55 372.09 202.587 368.924 188.837C365.757 175.103 360.741 154.212 353.882 126.17C352.241 119.118 351.153 115.316 350.611 114.774C350.247 115.316 348.622 122.191 345.736 135.399C345.372 137.207 344.783 139.603 343.965 142.587C343.158 145.577 342.299 148.962 341.382 152.754C339.575 160.535 338.309 165.42 337.59 167.42C336.866 170.311 336.007 173.931 335.007 178.274C334.017 182.608 332.804 187.67 331.361 193.462C330.262 198.17 329.392 201.738 328.757 204.17C328.132 206.613 327.726 208.014 327.549 208.379L327.007 210.004H299.07L271.111 209.733L270.57 207.837C270.205 206.389 269.799 204.717 269.34 202.816C268.892 200.925 268.491 198.712 268.132 196.17C267.767 195.087 267.497 193.733 267.32 192.108C267.137 190.483 266.778 188.488 266.236 186.129C265.695 183.78 265.283 181.847 265.007 180.316C264.741 178.774 264.517 177.644 264.34 176.92C260.892 160.629 257.997 146.431 255.653 134.316C253.304 122.191 251.403 111.972 249.945 103.649C249.58 102.207 249.221 100.264 248.861 97.8161C248.497 95.3734 247.955 92.5244 247.236 89.2744C247.054 88.3734 246.825 87.1077 246.549 85.4827C246.283 83.8473 245.971 82.1702 245.611 80.4619C245.247 78.7432 244.929 77.1598 244.653 75.7119C244.387 74.2536 244.257 73.2536 244.257 72.7119C243.892 71.4515 243.533 69.6911 243.174 67.4411C242.809 65.1807 242.538 63.5869 242.361 62.6702C241.997 59.9619 241.908 58.5192 242.09 58.3369Z" fill="black"/>
<path d="M562.802 56.4411C566.052 55.54 567.766 55.0869 567.948 55.0869C568.667 55.0869 569.032 55.9932 569.032 57.7952V73.5244C569.032 86.1911 568.938 92.7952 568.761 93.3369C568.578 94.0609 566.771 94.6911 563.344 95.2327C559.537 95.7744 555.641 96.5452 551.657 97.5452C547.683 98.5452 543.933 99.9515 540.407 101.754C536.875 103.561 533.62 105.826 530.636 108.545C527.646 111.254 525.25 114.415 523.448 118.024L521.282 122.379V210.274H480.573V126.712L480.844 57.7952H519.927V84.1077C520.104 84.1077 521.912 82.3942 525.344 78.9619C536.203 68.1025 548.688 60.5973 562.802 56.4411Z" fill="black"/>
<path d="M589.377 58.066H630.627V210.004H589.377V58.066ZM589.377 0.545166H630.627V34.191H589.377V0.545166Z" fill="black"/>
<path d="M703.616 58.8784C705.783 58.519 709.804 58.1597 715.679 57.7951C721.564 57.4357 730.205 57.2534 741.595 57.2534C747.205 57.2534 752.814 57.394 758.429 57.6701C764.038 57.9357 769.642 58.2482 775.241 58.6076V91.7118C775.059 92.0763 774.106 92.0763 772.387 91.7118C770.679 91.3524 768.371 90.993 765.47 90.6284C750.647 88.1024 736.272 86.8368 722.345 86.8368C715.647 86.8368 710.762 87.2899 707.679 88.1909C702.439 89.9982 698.913 92.4826 697.095 95.6493C695.288 98.8159 695.564 101.753 697.929 104.462C699.913 106.451 702.351 107.993 705.241 109.087C707.96 110.352 715.377 112.79 727.491 116.399C735.991 118.941 743.085 121.207 748.783 123.191C754.491 125.181 758.877 126.983 761.95 128.608C774.976 134.941 782.663 143.264 785.012 153.566C785.371 154.847 785.595 156.524 785.679 158.608C785.772 160.681 785.772 162.847 785.679 165.108C785.595 167.373 785.413 169.587 785.137 171.753C784.871 173.92 784.559 175.733 784.2 177.191C782.392 183.868 779.366 189.337 775.116 193.587C770.866 197.847 765.976 201.243 760.45 203.774C754.934 206.3 749.059 208.056 742.825 209.045C736.585 210.045 730.392 210.545 724.241 210.545C718.267 210.545 712.293 210.316 706.325 209.858C700.351 209.41 694.476 208.556 688.7 207.295C687.976 207.113 686.033 206.613 682.866 205.795C679.7 204.988 676.304 204.175 672.679 203.358C669.064 202.55 665.809 201.785 662.908 201.066C660.017 200.342 658.481 199.983 658.304 199.983C658.481 199.983 660.564 190.753 664.554 172.295L665.637 167.42L667.533 167.691C667.71 167.691 668.705 167.92 670.512 168.378C672.314 168.826 673.851 169.139 675.116 169.316C681.267 170.764 687.371 171.894 693.429 172.712C699.496 173.519 705.606 173.832 711.762 173.649C724.054 173.472 732.502 171.936 737.116 169.045C741.741 166.144 743.325 162.347 741.866 157.649C741.325 156.024 740.642 154.67 739.825 153.587C739.017 152.493 737.752 151.54 736.033 150.733C734.325 149.915 732.106 149.102 729.387 148.295C726.679 147.477 723.241 146.524 719.075 145.441C711.658 143.623 705.189 141.951 699.679 140.42C694.163 138.878 689.502 137.389 685.7 135.941C677.918 132.858 671.955 129.149 667.804 124.816C664.897 121.931 662.637 118.681 661.012 115.066C659.387 111.441 658.392 107.686 658.033 103.795C657.668 99.9097 658.033 95.9722 659.116 91.9826C660.2 87.9982 661.918 84.2013 664.283 80.5868C668.616 74.0763 674.351 69.144 681.491 65.7951C688.642 62.4513 696.017 60.144 703.616 58.8784Z" fill="black"/>
<path d="M887.849 83.0244C877.542 83.0244 868.995 85.2432 862.203 89.6703C855.422 94.1026 851.042 101.478 849.057 111.795L848.787 113.149H879.432L910.37 112.879V107.712C910.005 100.118 908.151 94.1026 904.807 89.6703C901.458 85.2432 895.807 83.0244 887.849 83.0244ZM871.037 58.0661C872.662 57.889 874.828 57.7536 877.537 57.6703C880.255 57.5765 883.516 57.6182 887.307 57.7953C894.901 57.9776 902.36 58.8369 909.682 60.3786C917.016 61.9098 923.708 64.3473 929.766 67.6911C935.833 71.0401 940.943 75.4776 945.099 81.0036C949.266 86.5192 951.979 93.5244 953.245 102.024C953.604 104.915 953.917 108.535 954.182 112.879C954.459 117.212 954.599 122.368 954.599 128.337V142.441H848.787L849.057 144.899C849.599 150.316 851.083 154.608 853.516 157.774C855.958 160.941 858.896 163.295 862.328 164.837C865.771 166.379 869.62 167.379 873.87 167.837C878.12 168.285 882.417 168.504 886.766 168.504C895.266 168.504 903.354 167.827 911.037 166.462C918.729 165.103 926.557 162.978 934.516 160.087C937.958 158.827 940.896 157.702 943.328 156.712C945.771 155.712 947.714 154.754 949.162 153.837C950.078 153.295 950.625 153.024 950.807 153.024C950.985 152.847 951.167 152.754 951.349 152.754C951.349 152.936 951.209 154.389 950.932 157.108C950.667 159.816 950.172 163.889 949.453 169.316C948.537 175.472 947.896 180.353 947.537 183.962C947.172 187.587 946.901 190.118 946.724 191.566L946.182 197.254L941.849 199.149C932.985 203.134 924.026 206.03 914.974 207.837C905.932 209.639 896.62 210.545 887.037 210.545C877.271 210.545 868 209.592 859.224 207.691C850.443 205.8 842.578 202.681 835.62 198.337C828.662 194.004 822.828 188.358 818.12 181.399C813.412 174.431 810.245 165.79 808.62 155.483C807.896 151.858 807.537 144.353 807.537 132.962C807.537 121.561 807.896 114.144 808.62 110.712C810.063 102.754 812.682 95.6598 816.474 89.4203C820.276 83.1703 824.938 77.8786 830.453 73.5453C835.979 69.2015 842.182 65.7119 849.057 63.0869C855.932 60.4619 863.255 58.7901 871.037 58.0661Z" fill="black"/>
<path d="M973.638 166.366C973.638 166.007 980.794 165.825 995.117 165.825L1016.6 166.096V172.075C1016.6 173.523 1016.6 176.148 1016.6 179.95C1016.6 183.752 1016.5 188.648 1016.33 194.637V210.95H994.846L973.638 210.679L973.367 188.929C973.367 174.252 973.455 166.731 973.638 166.366Z" fill="#EE4266"/>
</svg>
